<svg width="90" height="135" viewBox="0 0 90 135" fill="none" xmlns="http://www.w3.org/2000/svg">
<g filter="url(#filter0_d_9250_3895)">
<mask id="path-1-outside-1_9250_3895" maskUnits="userSpaceOnUse" x="-0.75" y="-0.5" width="80" height="125" fill="black">
<rect fill="white" x="-0.75" y="-0.5" width="80" height="125"/>
<path d="M67.5 11.25H56.25V22.5H45L45 33.75H33.75L33.75 45H22.5V56.25H11.25L11.25 67.5H22.5L22.5 78.75H33.75V90H45V101.25H56.25V112.5H67.5L67.5 11.25Z"/>
</mask>
<path d="M67.5 11.25H56.25V22.5H45L45 33.75H33.75L33.75 45H22.5V56.25H11.25L11.25 67.5H22.5L22.5 78.75H33.75V90H45V101.25H56.25V112.5H67.5L67.5 11.25Z" fill="#6043AF"/>
<path d="M67.5 11.25V0L78.75 0V11.25L67.5 11.25ZM56.25 11.25H45V0H56.25V11.25ZM56.25 22.5H67.5L67.5 33.75H56.25L56.25 22.5ZM45 22.5H33.75V11.25H45V22.5ZM45 33.75H56.25V45H45V33.75ZM33.75 33.75H22.5L22.5 22.5H33.75V33.75ZM33.75 45H45V56.25L33.75 56.25V45ZM22.5 45H11.25V33.75H22.5V45ZM22.5 56.25H33.75V67.5H22.5V56.25ZM11.25 56.25H0L0 45H11.25L11.25 56.25ZM11.25 67.5L11.25 78.75H0L0 67.5H11.25ZM22.5 67.5V56.25H33.75V67.5H22.5ZM22.5 78.75V90H11.25V78.75H22.5ZM33.75 78.75L33.75 67.5H45V78.75H33.75ZM33.75 90V101.25H22.5L22.5 90H33.75ZM45 90L45 78.75H56.25L56.25 90H45ZM45 101.25V112.5H33.75V101.25H45ZM56.25 101.25V90H67.5V101.25H56.25ZM56.25 112.5V123.75H45V112.5H56.25ZM67.5 112.5L78.75 112.5V123.75L67.5 123.75V112.5ZM67.5 11.25V22.5H56.25V11.25V0H67.5V11.25ZM56.25 11.25H67.5V22.5H56.25H45V11.25H56.25ZM56.25 22.5L56.25 33.75H45L45 22.5V11.25H56.25V22.5ZM45 22.5H56.25L56.25 33.75H45H33.75V22.5H45ZM45 33.75V45H33.75L33.75 33.75V22.5H45L45 33.75ZM33.75 33.75H45V45H33.75H22.5V33.75H33.75ZM33.75 45V56.25H22.5V45V33.75H33.75L33.75 45ZM22.5 45H33.75V56.25H22.5H11.25L11.25 45H22.5ZM22.5 56.25V67.5H11.25L11.25 56.25L11.25 45H22.5V56.25ZM11.25 56.25H22.5V67.5H11.25H0L0 56.25H11.25ZM11.25 67.5L11.25 56.25H22.5V67.5L22.5 78.75H11.25L11.25 67.5ZM22.5 67.5H33.75L33.75 78.75H22.5H11.25L11.25 67.5H22.5ZM22.5 78.75L22.5 67.5H33.75L33.75 78.75V90H22.5V78.75ZM33.75 78.75H45L45 90H33.75H22.5V78.75H33.75ZM33.75 90V78.75H45L45 90V101.25H33.75V90ZM45 90H56.25V101.25H45H33.75V90H45ZM45 101.25V90H56.25V101.25V112.5H45V101.25ZM56.25 101.25H67.5V112.5H56.25H45V101.25H56.25ZM56.25 112.5V101.25H67.5V112.5V123.75H56.25V112.5ZM67.5 112.5H56.25L56.25 11.25H67.5L78.75 11.25L78.75 112.5L67.5 112.5Z" fill="#1E3445" mask="url(#path-1-outside-1_9250_3895)"/>
</g>
<g filter="url(#filter1_d_9250_3895)">
<path d="M67.5 11.25H56.25V22.5H45L45 33.75H33.75L33.75 45H22.5V56.25H11.25L11.25 67.5H22.5L22.5 78.75H33.75V90H45V101.25H56.25V112.5H67.5L67.5 11.25Z" fill="white" fill-opacity="0.3" shape-rendering="crispEdges"/>
</g>
<defs>
<filter id="filter0_d_9250_3895" x="0" y="0" width="90" height="135" filterUnits="userSpaceOnUse" color-interpolation-filters="sRGB">
<feFlood flood-opacity="0" result="BackgroundImageFix"/>
<feColorMatrix in="SourceAlpha" type="matrix" values="0 0 0 0 0 0 0 0 0 0 0 0 0 0 0 0 0 0 127 0" result="hardAlpha"/>
<feOffset dx="11.25" dy="11.25"/>
<feComposite in2="hardAlpha" operator="out"/>
<feColorMatrix type="matrix" values="0 0 0 0 0.117647 0 0 0 0 0.203922 0 0 0 0 0.270588 0 0 0 1 0"/>
<feBlend mode="normal" in2="BackgroundImageFix" result="effect1_dropShadow_9250_3895"/>
<feBlend mode="normal" in="SourceGraphic" in2="effect1_dropShadow_9250_3895" result="shape"/>
</filter>
<filter id="filter1_d_9250_3895" x="11.25" y="11.25" width="67.5" height="112.5" filterUnits="userSpaceOnUse" color-interpolation-filters="sRGB">
<feFlood flood-opacity="0" result="BackgroundImageFix"/>
<feColorMatrix in="SourceAlpha" type="matrix" values="0 0 0 0 0 0 0 0 0 0 0 0 0 0 0 0 0 0 127 0" result="hardAlpha"/>
<feOffset dx="11.25" dy="11.25"/>
<feComposite in2="hardAlpha" operator="out"/>
<feColorMatrix type="matrix" values="0 0 0 0 0.117647 0 0 0 0 0.203922 0 0 0 0 0.270588 0 0 0 1 0"/>
<feBlend mode="normal" in2="BackgroundImageFix" result="effect1_dropShadow_9250_3895"/>
<feBlend mode="normal" in="SourceGraphic" in2="effect1_dropShadow_9250_3895" result="shape"/>
</filter>
</defs>
</svg>
