<svg width="80" height="80" viewBox="0 0 80 80" fill="none" xmlns="http://www.w3.org/2000/svg">
<g filter="url(#filter0_d_1_14953)">
<path d="M11.1628 0V5.5814H5.5814V11.1628H0V63.2558H5.5814V68.8372H11.1628V74.4186H16.7442V0H11.1628Z" fill="#5865F2"/>
</g>
<path d="M11.1628 5.5814V0H16.7442V5.5814V11.1628H11.1628V16.7442H5.5814V57.6744H11.1628V63.2558H16.7442V68.8372V74.4186H11.1628V68.8372H5.5814V63.2558H0V11.1628H5.5814V5.5814H11.1628Z" fill="#1E3445"/>
<g filter="url(#filter1_d_1_14953)">
<rect width="40.9302" height="74.4186" transform="translate(16.7442)" fill="#5865F2"/>
<rect x="16.7442" width="40.9302" height="5.5814" fill="#1E3445"/>
<path fill-rule="evenodd" clip-rule="evenodd" d="M27.9069 24.186H33.4883V26.0465H40.9302V24.186H46.5116V26.0465H48.3721V27.907H50.2325V31.6279H52.093V37.2093H53.9535V44.6512H52.093V46.5116H50.2325V48.3721H48.3721V50.2325H42.7907V48.3721H31.6279V50.2325H26.0465V48.3721H24.186V46.5116H22.3256V44.6512H20.4651V37.2093H22.3256V31.6279H24.186V27.907H26.0465V26.0465H27.9069V24.186ZM46.5116 46.5116V44.6512H48.3721V42.7907H50.2325V39.0698H48.3721V31.6279H46.5116V29.7674H44.6511V27.907H42.7907V29.7674H31.6279V27.907H29.7674V29.7674H27.9069V31.6279H26.0465V39.0698H24.186V42.7907H26.0465V44.6512H27.9069V46.5116H31.6279V44.6512H42.7907V46.5116H46.5116Z" fill="white"/>
<path fill-rule="evenodd" clip-rule="evenodd" d="M46.5116 46.5116V44.6512H48.3721V42.7907H50.2325V39.0698H48.3721V31.6279H46.5116V29.7674H44.6511V27.907H42.7907V29.7674H31.6279V27.907H29.7674V29.7674H27.9069V31.6279H26.0465V39.0698H24.186V42.7907H26.0465V44.6512H27.9069V46.5116H31.6279V44.6512H42.7907V46.5116H46.5116ZM29.7674 37.2093V35.3488H33.4883V37.2093H35.3488V40.9302H33.4883V42.7907H29.7674V40.9302H27.9069V37.2093H29.7674ZM46.5116 37.2093H44.6511V35.3488H40.9302V37.2093H39.0697V40.9302H40.9302V42.7907H44.6511V40.9302H46.5116V37.2093Z" fill="white"/>
<rect x="16.7442" y="68.8372" width="40.9302" height="5.5814" fill="#1E3445"/>
</g>
<g filter="url(#filter2_d_1_14953)">
<path d="M63.2558 74.4186V68.8372H68.8372V63.2558H74.4186V11.1628H68.8372V5.5814H63.2558V0H57.6744V74.4186H63.2558Z" fill="#5865F2"/>
</g>
<path d="M63.2558 68.8372V74.4186H57.6744V68.8372V63.2558H63.2558V57.6744H68.8372V16.7442H63.2558V11.1628H57.6744V5.5814V0H63.2558V5.5814H68.8372V11.1628H74.4186V63.2558H68.8372V68.8372H63.2558Z" fill="#1E3445"/>
<path d="M10.2326 10.2325H15.814H56.7442H62.3256V15.8139V56.7442V62.3256H56.7442H15.814H10.2326V56.7442V15.8139V10.2325Z" fill="white" fill-opacity="0.3"/>
<path d="M10.2326 15.8139H4.65118V56.7442H10.2326V15.8139Z" fill="white" fill-opacity="0.3"/>
<path d="M56.7442 10.2325V4.65115H15.814V10.2325H56.7442Z" fill="white" fill-opacity="0.3"/>
<path d="M15.814 62.3256V67.907H56.7442V62.3256H15.814Z" fill="white" fill-opacity="0.3"/>
<path d="M62.3256 56.7442H67.907V15.8139H62.3256V56.7442Z" fill="white" fill-opacity="0.3"/>
<defs>
<filter id="filter0_d_1_14953" x="0" y="0" width="22.3256" height="80" filterUnits="userSpaceOnUse" color-interpolation-filters="sRGB">
<feFlood flood-opacity="0" result="BackgroundImageFix"/>
<feColorMatrix in="SourceAlpha" type="matrix" values="0 0 0 0 0 0 0 0 0 0 0 0 0 0 0 0 0 0 127 0" result="hardAlpha"/>
<feOffset dx="5.5814" dy="5.5814"/>
<feComposite in2="hardAlpha" operator="out"/>
<feColorMatrix type="matrix" values="0 0 0 0 0.117647 0 0 0 0 0.203922 0 0 0 0 0.270588 0 0 0 1 0"/>
<feBlend mode="normal" in2="BackgroundImageFix" result="effect1_dropShadow_1_14953"/>
<feBlend mode="normal" in="SourceGraphic" in2="effect1_dropShadow_1_14953" result="shape"/>
</filter>
<filter id="filter1_d_1_14953" x="1.86047" y="0" width="76.2791" height="80" filterUnits="userSpaceOnUse" color-interpolation-filters="sRGB">
<feFlood flood-opacity="0" result="BackgroundImageFix"/>
<feColorMatrix in="SourceAlpha" type="matrix" values="0 0 0 0 0 0 0 0 0 0 0 0 0 0 0 0 0 0 127 0" result="hardAlpha"/>
<feOffset dx="5.5814" dy="5.5814"/>
<feComposite in2="hardAlpha" operator="out"/>
<feColorMatrix type="matrix" values="0 0 0 0 0.117647 0 0 0 0 0.203922 0 0 0 0 0.270588 0 0 0 1 0"/>
<feBlend mode="normal" in2="BackgroundImageFix" result="effect1_dropShadow_1_14953"/>
<feBlend mode="normal" in="SourceGraphic" in2="effect1_dropShadow_1_14953" result="shape"/>
</filter>
<filter id="filter2_d_1_14953" x="57.6744" y="0" width="22.3256" height="80" filterUnits="userSpaceOnUse" color-interpolation-filters="sRGB">
<feFlood flood-opacity="0" result="BackgroundImageFix"/>
<feColorMatrix in="SourceAlpha" type="matrix" values="0 0 0 0 0 0 0 0 0 0 0 0 0 0 0 0 0 0 127 0" result="hardAlpha"/>
<feOffset dx="5.5814" dy="5.5814"/>
<feComposite in2="hardAlpha" operator="out"/>
<feColorMatrix type="matrix" values="0 0 0 0 0.117647 0 0 0 0 0.203922 0 0 0 0 0.270588 0 0 0 1 0"/>
<feBlend mode="normal" in2="BackgroundImageFix" result="effect1_dropShadow_1_14953"/>
<feBlend mode="normal" in="SourceGraphic" in2="effect1_dropShadow_1_14953" result="shape"/>
</filter>
</defs>
</svg>
