<svg xmlns="http://www.w3.org/2000/svg" version="1.2" viewBox="0 0 29 29"><rect width="100%" height="100%" fill="#0047B1"/><rect x="11" y="12" width="1" height="1" shape-rendering="crispEdges" fill="#11170e"/><rect x="12" y="12" width="1" height="1" shape-rendering="crispEdges" fill="#11170e"/><rect x="13" y="12" width="1" height="1" shape-rendering="crispEdges" fill="#11170e"/><rect x="14" y="12" width="1" height="1" shape-rendering="crispEdges" fill="#11170e"/><rect x="15" y="12" width="1" height="1" shape-rendering="crispEdges" fill="#11170e"/><rect x="16" y="12" width="1" height="1" shape-rendering="crispEdges" fill="#11170e"/><rect x="17" y="12" width="1" height="1" shape-rendering="crispEdges" fill="#11170e"/><rect x="10" y="13" width="1" height="1" shape-rendering="crispEdges" fill="#11170e"/><rect x="11" y="13" width="1" height="1" shape-rendering="crispEdges" fill="#e3a789"/><rect x="12" y="13" width="1" height="1" shape-rendering="crispEdges" fill="#d2b48c"/><rect x="13" y="13" width="1" height="1" shape-rendering="crispEdges" fill="#d2b48c"/><rect x="14" y="13" width="1" height="1" shape-rendering="crispEdges" fill="#d2b48c"/><rect x="15" y="13" width="1" height="1" shape-rendering="crispEdges" fill="#d2b48c"/><rect x="16" y="13" width="1" height="1" shape-rendering="crispEdges" fill="#d2b48c"/><rect x="17" y="13" width="1" height="1" shape-rendering="crispEdges" fill="#f5deb3"/><rect x="18" y="13" width="1" height="1" shape-rendering="crispEdges" fill="#11170e"/><rect x="9" y="14" width="1" height="1" shape-rendering="crispEdges" fill="#11170e"/><rect x="10" y="14" width="1" height="1" shape-rendering="crispEdges" fill="#e3a789"/><rect x="11" y="14" width="1" height="1" shape-rendering="crispEdges" fill="#d2b48c"/><rect x="12" y="14" width="1" height="1" shape-rendering="crispEdges" fill="#d2b48c"/><rect x="13" y="14" width="1" height="1" shape-rendering="crispEdges" fill="#d2b48c"/><rect x="14" y="14" width="1" height="1" shape-rendering="crispEdges" fill="#d2b48c"/><rect x="15" y="14" width="1" height="1" shape-rendering="crispEdges" fill="#d2b48c"/><rect x="16" y="14" width="1" height="1" shape-rendering="crispEdges" fill="#d2b48c"/><rect x="17" y="14" width="1" height="1" shape-rendering="crispEdges" fill="#d2b48c"/><rect x="18" y="14" width="1" height="1" shape-rendering="crispEdges" fill="#f5deb3"/><rect x="19" y="14" width="1" height="1" shape-rendering="crispEdges" fill="#11170e"/><rect x="9" y="15" width="1" height="1" shape-rendering="crispEdges" fill="#11170e"/><rect x="10" y="15" width="1" height="1" shape-rendering="crispEdges" fill="#e3a789"/><rect x="11" y="15" width="1" height="1" shape-rendering="crispEdges" fill="#d2b48c"/><rect x="12" y="15" width="1" height="1" shape-rendering="crispEdges" fill="#d2b48c"/><rect x="13" y="15" width="1" height="1" shape-rendering="crispEdges" fill="#d2b48c"/><rect x="14" y="15" width="1" height="1" shape-rendering="crispEdges" fill="#d2b48c"/><rect x="15" y="15" width="1" height="1" shape-rendering="crispEdges" fill="#d2b48c"/><rect x="16" y="15" width="1" height="1" shape-rendering="crispEdges" fill="#d2b48c"/><rect x="17" y="15" width="1" height="1" shape-rendering="crispEdges" fill="#d2b48c"/><rect x="18" y="15" width="1" height="1" shape-rendering="crispEdges" fill="#d2b48c"/><rect x="19" y="15" width="1" height="1" shape-rendering="crispEdges" fill="#11170e"/><rect x="7" y="16" width="1" height="1" shape-rendering="crispEdges" fill="#11170e"/><rect x="8" y="16" width="1" height="1" shape-rendering="crispEdges" fill="#11170e"/><rect x="9" y="16" width="1" height="1" shape-rendering="crispEdges" fill="#11170e"/><rect x="10" y="16" width="1" height="1" shape-rendering="crispEdges" fill="#11170e"/><rect x="11" y="16" width="1" height="1" shape-rendering="crispEdges" fill="#e5c100"/><rect x="12" y="16" width="1" height="1" shape-rendering="crispEdges" fill="#e5c100"/><rect x="13" y="16" width="1" height="1" shape-rendering="crispEdges" fill="#e5c100"/><rect x="14" y="16" width="1" height="1" shape-rendering="crispEdges" fill="#a66a4e"/><rect x="15" y="16" width="1" height="1" shape-rendering="crispEdges" fill="#d2b48c"/><rect x="16" y="16" width="1" height="1" shape-rendering="crispEdges" fill="#a66a4e"/><rect x="17" y="16" width="1" height="1" shape-rendering="crispEdges" fill="#e5c100"/><rect x="18" y="16" width="1" height="1" shape-rendering="crispEdges" fill="#e5c100"/><rect x="19" y="16" width="1" height="1" shape-rendering="crispEdges" fill="#e5c100"/><rect x="20" y="16" width="1" height="1" shape-rendering="crispEdges" fill="#11170e"/><rect x="21" y="16" width="1" height="1" shape-rendering="crispEdges" fill="#11170e"/><rect x="6" y="17" width="1" height="1" shape-rendering="crispEdges" fill="#11170e"/><rect x="7" y="17" width="1" height="1" shape-rendering="crispEdges" fill="#a66a4e"/><rect x="8" y="17" width="1" height="1" shape-rendering="crispEdges" fill="#a66a4e"/><rect x="9" y="17" width="1" height="1" shape-rendering="crispEdges" fill="#a66a4e"/><rect x="10" y="17" width="1" height="1" shape-rendering="crispEdges" fill="#e5c100"/><rect x="11" y="17" width="1" height="1" shape-rendering="crispEdges" fill="#e5c100"/><rect x="12" y="17" width="1" height="1" shape-rendering="crispEdges" fill="#ff6b97"/><rect x="13" y="17" width="1" height="1" shape-rendering="crispEdges" fill="#ff6b97"/><rect x="14" y="17" width="1" height="1" shape-rendering="crispEdges" fill="#e5c100"/><rect x="15" y="17" width="1" height="1" shape-rendering="crispEdges" fill="#e5c100"/><rect x="16" y="17" width="1" height="1" shape-rendering="crispEdges" fill="#e5c100"/><rect x="17" y="17" width="1" height="1" shape-rendering="crispEdges" fill="#ff6b97"/><rect x="18" y="17" width="1" height="1" shape-rendering="crispEdges" fill="#ff6b97"/><rect x="19" y="17" width="1" height="1" shape-rendering="crispEdges" fill="#e5c100"/><rect x="20" y="17" width="1" height="1" shape-rendering="crispEdges" fill="#e5c100"/><rect x="21" y="17" width="1" height="1" shape-rendering="crispEdges" fill="#a66a4e"/><rect x="22" y="17" width="1" height="1" shape-rendering="crispEdges" fill="#11170e"/><rect x="7" y="18" width="1" height="1" shape-rendering="crispEdges" fill="#11170e"/><rect x="8" y="18" width="1" height="1" shape-rendering="crispEdges" fill="#e3a789"/><rect x="9" y="18" width="1" height="1" shape-rendering="crispEdges" fill="#e3a789"/><rect x="10" y="18" width="1" height="1" shape-rendering="crispEdges" fill="#d2b48c"/><rect x="11" y="18" width="1" height="1" shape-rendering="crispEdges" fill="#e5c100"/><rect x="12" y="18" width="1" height="1" shape-rendering="crispEdges" fill="#ff6b97"/><rect x="13" y="18" width="1" height="1" shape-rendering="crispEdges" fill="#ff6b97"/><rect x="14" y="18" width="1" height="1" shape-rendering="crispEdges" fill="#e5c100"/><rect x="15" y="18" width="1" height="1" shape-rendering="crispEdges" fill="#a66a4e"/><rect x="16" y="18" width="1" height="1" shape-rendering="crispEdges" fill="#e5c100"/><rect x="17" y="18" width="1" height="1" shape-rendering="crispEdges" fill="#ff6b97"/><rect x="18" y="18" width="1" height="1" shape-rendering="crispEdges" fill="#ff6b97"/><rect x="19" y="18" width="1" height="1" shape-rendering="crispEdges" fill="#e5c100"/><rect x="20" y="18" width="1" height="1" shape-rendering="crispEdges" fill="#d2b48c"/><rect x="21" y="18" width="1" height="1" shape-rendering="crispEdges" fill="#11170e"/><rect x="8" y="19" width="1" height="1" shape-rendering="crispEdges" fill="#11170e"/><rect x="9" y="19" width="1" height="1" shape-rendering="crispEdges" fill="#000002"/><rect x="10" y="19" width="1" height="1" shape-rendering="crispEdges" fill="#e3a789"/><rect x="11" y="19" width="1" height="1" shape-rendering="crispEdges" fill="#d2b48c"/><rect x="12" y="19" width="1" height="1" shape-rendering="crispEdges" fill="#e5c100"/><rect x="13" y="19" width="1" height="1" shape-rendering="crispEdges" fill="#e5c100"/><rect x="14" y="19" width="1" height="1" shape-rendering="crispEdges" fill="#a66a4e"/><rect x="15" y="19" width="1" height="1" shape-rendering="crispEdges" fill="#a66a4e"/><rect x="16" y="19" width="1" height="1" shape-rendering="crispEdges" fill="#a66a4e"/><rect x="17" y="19" width="1" height="1" shape-rendering="crispEdges" fill="#e5c100"/><rect x="18" y="19" width="1" height="1" shape-rendering="crispEdges" fill="#e5c100"/><rect x="19" y="19" width="1" height="1" shape-rendering="crispEdges" fill="#11170e"/><rect x="20" y="19" width="1" height="1" shape-rendering="crispEdges" fill="#11170e"/><rect x="9" y="20" width="1" height="1" shape-rendering="crispEdges" fill="#11170e"/><rect x="10" y="20" width="1" height="1" shape-rendering="crispEdges" fill="#e3a789"/><rect x="11" y="20" width="1" height="1" shape-rendering="crispEdges" fill="#d2b48c"/><rect x="12" y="20" width="1" height="1" shape-rendering="crispEdges" fill="#a66a4e"/><rect x="13" y="20" width="1" height="1" shape-rendering="crispEdges" fill="#ffffff"/><rect x="14" y="20" width="1" height="1" shape-rendering="crispEdges" fill="#d2b48c"/><rect x="15" y="20" width="1" height="1" shape-rendering="crispEdges" fill="#d2b48c"/><rect x="16" y="20" width="1" height="1" shape-rendering="crispEdges" fill="#d2b48c"/><rect x="17" y="20" width="1" height="1" shape-rendering="crispEdges" fill="#fffffd"/><rect x="18" y="20" width="1" height="1" shape-rendering="crispEdges" fill="#a66a4e"/><rect x="19" y="20" width="1" height="1" shape-rendering="crispEdges" fill="#11170e"/><rect x="20" y="20" width="1" height="1" shape-rendering="crispEdges" fill="#11170e"/><rect x="9" y="21" width="1" height="1" shape-rendering="crispEdges" fill="#11170e"/><rect x="10" y="21" width="1" height="1" shape-rendering="crispEdges" fill="#e3a789"/><rect x="11" y="21" width="1" height="1" shape-rendering="crispEdges" fill="#d2b48c"/><rect x="12" y="21" width="1" height="1" shape-rendering="crispEdges" fill="#d2b48c"/><rect x="13" y="21" width="1" height="1" shape-rendering="crispEdges" fill="#ffffff"/><rect x="14" y="21" width="1" height="1" shape-rendering="crispEdges" fill="#000000"/><rect x="15" y="21" width="1" height="1" shape-rendering="crispEdges" fill="#000000"/><rect x="16" y="21" width="1" height="1" shape-rendering="crispEdges" fill="#000000"/><rect x="17" y="21" width="1" height="1" shape-rendering="crispEdges" fill="#feffff"/><rect x="18" y="21" width="1" height="1" shape-rendering="crispEdges" fill="#d2b48c"/><rect x="19" y="21" width="1" height="1" shape-rendering="crispEdges" fill="#11170e"/><rect x="10" y="22" width="1" height="1" shape-rendering="crispEdges" fill="#11170e"/><rect x="11" y="22" width="1" height="1" shape-rendering="crispEdges" fill="#e3a789"/><rect x="12" y="22" width="1" height="1" shape-rendering="crispEdges" fill="#d2b48c"/><rect x="13" y="22" width="1" height="1" shape-rendering="crispEdges" fill="#d2b48c"/><rect x="14" y="22" width="1" height="1" shape-rendering="crispEdges" fill="#d2b48c"/><rect x="15" y="22" width="1" height="1" shape-rendering="crispEdges" fill="#d2b48c"/><rect x="16" y="22" width="1" height="1" shape-rendering="crispEdges" fill="#d2b48c"/><rect x="17" y="22" width="1" height="1" shape-rendering="crispEdges" fill="#d2b48c"/><rect x="18" y="22" width="1" height="1" shape-rendering="crispEdges" fill="#11170e"/><rect x="11" y="23" width="1" height="1" shape-rendering="crispEdges" fill="#11170e"/><rect x="12" y="23" width="1" height="1" shape-rendering="crispEdges" fill="#e3a789"/><rect x="13" y="23" width="1" height="1" shape-rendering="crispEdges" fill="#e3a789"/><rect x="14" y="23" width="1" height="1" shape-rendering="crispEdges" fill="#e3a789"/><rect x="15" y="23" width="1" height="1" shape-rendering="crispEdges" fill="#11170e"/><rect x="16" y="23" width="1" height="1" shape-rendering="crispEdges" fill="#11170e"/><rect x="17" y="23" width="1" height="1" shape-rendering="crispEdges" fill="#11170e"/><rect x="10" y="24" width="1" height="1" shape-rendering="crispEdges" fill="#000000"/><rect x="11" y="24" width="1" height="1" shape-rendering="crispEdges" fill="#000000"/><rect x="12" y="24" width="1" height="1" shape-rendering="crispEdges" fill="#000000"/><rect x="13" y="24" width="1" height="1" shape-rendering="crispEdges" fill="#e3a789"/><rect x="14" y="24" width="1" height="1" shape-rendering="crispEdges" fill="#d2b48c"/><rect x="15" y="24" width="1" height="1" shape-rendering="crispEdges" fill="#d2b48c"/><rect x="16" y="24" width="1" height="1" shape-rendering="crispEdges" fill="#000000"/><rect x="17" y="24" width="1" height="1" shape-rendering="crispEdges" fill="#000000"/><rect x="9" y="25" width="1" height="1" shape-rendering="crispEdges" fill="#000000"/><rect x="10" y="25" width="1" height="1" shape-rendering="crispEdges" fill="#ffffff"/><rect x="11" y="25" width="1" height="1" shape-rendering="crispEdges" fill="#d3d6f0"/><rect x="12" y="25" width="1" height="1" shape-rendering="crispEdges" fill="#ffffff"/><rect x="13" y="25" width="1" height="1" shape-rendering="crispEdges" fill="#000000"/><rect x="14" y="25" width="1" height="1" shape-rendering="crispEdges" fill="#000000"/><rect x="15" y="25" width="1" height="1" shape-rendering="crispEdges" fill="#000000"/><rect x="16" y="25" width="1" height="1" shape-rendering="crispEdges" fill="#ffffff"/><rect x="17" y="25" width="1" height="1" shape-rendering="crispEdges" fill="#d3d6f0"/><rect x="18" y="25" width="1" height="1" shape-rendering="crispEdges" fill="#000000"/><rect x="8" y="26" width="1" height="1" shape-rendering="crispEdges" fill="#000000"/><rect x="9" y="26" width="1" height="1" shape-rendering="crispEdges" fill="#be000a"/><rect x="10" y="26" width="1" height="1" shape-rendering="crispEdges" fill="#000000"/><rect x="11" y="26" width="1" height="1" shape-rendering="crispEdges" fill="#000000"/><rect x="12" y="26" width="1" height="1" shape-rendering="crispEdges" fill="#000000"/><rect x="13" y="26" width="1" height="1" shape-rendering="crispEdges" fill="#d3d6f0"/><rect x="14" y="26" width="1" height="1" shape-rendering="crispEdges" fill="#ffffff"/><rect x="15" y="26" width="1" height="1" shape-rendering="crispEdges" fill="#d3d6f0"/><rect x="16" y="26" width="1" height="1" shape-rendering="crispEdges" fill="#000000"/><rect x="17" y="26" width="1" height="1" shape-rendering="crispEdges" fill="#000000"/><rect x="18" y="26" width="1" height="1" shape-rendering="crispEdges" fill="#ff3e47"/><rect x="19" y="26" width="1" height="1" shape-rendering="crispEdges" fill="#000000"/><rect x="7" y="27" width="1" height="1" shape-rendering="crispEdges" fill="#000000"/><rect x="8" y="27" width="1" height="1" shape-rendering="crispEdges" fill="#be000a"/><rect x="9" y="27" width="1" height="1" shape-rendering="crispEdges" fill="#ff3e47"/><rect x="10" y="27" width="1" height="1" shape-rendering="crispEdges" fill="#be000a"/><rect x="11" y="27" width="1" height="1" shape-rendering="crispEdges" fill="#ff3e47"/><rect x="12" y="27" width="1" height="1" shape-rendering="crispEdges" fill="#be000a"/><rect x="13" y="27" width="1" height="1" shape-rendering="crispEdges" fill="#000000"/><rect x="14" y="27" width="1" height="1" shape-rendering="crispEdges" fill="#000000"/><rect x="15" y="27" width="1" height="1" shape-rendering="crispEdges" fill="#000000"/><rect x="16" y="27" width="1" height="1" shape-rendering="crispEdges" fill="#be000a"/><rect x="17" y="27" width="1" height="1" shape-rendering="crispEdges" fill="#ff3e47"/><rect x="18" y="27" width="1" height="1" shape-rendering="crispEdges" fill="#be000a"/><rect x="19" y="27" width="1" height="1" shape-rendering="crispEdges" fill="#ff3e47"/><rect x="20" y="27" width="1" height="1" shape-rendering="crispEdges" fill="#000000"/><rect x="7" y="28" width="1" height="1" shape-rendering="crispEdges" fill="#000000"/><rect x="8" y="28" width="1" height="1" shape-rendering="crispEdges" fill="#ff3e47"/><rect x="9" y="28" width="1" height="1" shape-rendering="crispEdges" fill="#be000a"/><rect x="10" y="28" width="1" height="1" shape-rendering="crispEdges" fill="#ff3e47"/><rect x="11" y="28" width="1" height="1" shape-rendering="crispEdges" fill="#be000a"/><rect x="12" y="28" width="1" height="1" shape-rendering="crispEdges" fill="#ff3e47"/><rect x="13" y="28" width="1" height="1" shape-rendering="crispEdges" fill="#be000a"/><rect x="14" y="28" width="1" height="1" shape-rendering="crispEdges" fill="#ff3e47"/><rect x="15" y="28" width="1" height="1" shape-rendering="crispEdges" fill="#be000a"/><rect x="16" y="28" width="1" height="1" shape-rendering="crispEdges" fill="#ff3e47"/><rect x="17" y="28" width="1" height="1" shape-rendering="crispEdges" fill="#be000a"/><rect x="18" y="28" width="1" height="1" shape-rendering="crispEdges" fill="#ff3e47"/><rect x="19" y="28" width="1" height="1" shape-rendering="crispEdges" fill="#be000a"/><rect x="20" y="28" width="1" height="1" shape-rendering="crispEdges" fill="#000000"/></svg>